<svg width="128" height="66" xmlns="http://www.w3.org/2000/svg"><g fill="none" fill-rule="evenodd"><path d="M0 0h128v66H0z"/><path d="M13.817 47.687V29.983h-3.62c-.465 1.093-1.11 2.011-1.933 2.755-.824.744-1.98 1.381-3.47 1.912v3.965c1.01-.34 1.85-.696 2.519-1.068.67-.372 1.362-.86 2.079-1.46v11.6h4.425zm18.064 0v-3.942h-6.832c.4-.436.75-.788 1.047-1.057.297-.27.886-.74 1.767-1.413 1.483-1.156 2.505-2.216 3.067-3.182.562-.966.843-1.979.843-3.04 0-.997-.245-1.897-.735-2.7a4.485 4.485 0 00-2.02-1.788c-.856-.388-2.053-.582-3.593-.582-1.475 0-2.63.204-3.465.612a4.516 4.516 0 00-1.939 1.757c-.458.764-.773 1.827-.945 3.188l4.383.392c.122-.982.36-1.666.714-2.054.355-.388.811-.582 1.37-.582.537 0 .983.188 1.337.564.355.376.532.83.532 1.36 0 .49-.179 1.009-.537 1.555-.358.546-1.178 1.346-2.46 2.398-2.098 1.718-3.529 3.208-4.291 4.47a9.69 9.69 0 00-1.37 4.044H31.88zm8.9.296c1.468 0 2.654-.25 3.556-.754a5.06 5.06 0 002.073-2.149c.48-.93.72-1.901.72-2.915 0-.807-.145-1.502-.435-2.083a3.63 3.63 0 00-1.22-1.407c-.322-.222-.787-.416-1.396-.582.752-.46 1.314-.994 1.687-1.603a3.84 3.84 0 00.558-2.042c0-1.283-.458-2.347-1.375-3.194-.916-.847-2.402-1.27-4.458-1.27-1.79 0-3.174.387-4.152 1.163-.977.776-1.638 1.892-1.982 3.348l4.136.82c.115-.863.333-1.467.655-1.811.323-.344.742-.517 1.257-.517.502 0 .895.159 1.182.475.286.317.43.74.43 1.27 0 .555-.192 1.034-.575 1.437a1.896 1.896 0 01-1.434.606c-.136 0-.326-.02-.57-.06l-.225 3.456c.601-.19 1.074-.285 1.418-.285.644 0 1.155.221 1.53.665.377.443.565 1.068.565 1.876 0 .791-.196 1.424-.586 1.9-.39.474-.879.712-1.466.712-.559 0-1.019-.188-1.38-.564-.362-.376-.629-1.051-.8-2.025l-4.373.642c.287 1.084.697 1.984 1.23 2.7a5.12 5.12 0 002.041 1.633c.827.372 1.957.558 3.39.558zm19.976-.296v-3.254h1.976v-3.752h-1.976V29.983h-3.814l-7.97 10.473v3.977h7.97v3.254h3.814zm-3.814-7.006h-4.21l4.21-5.473v5.473zm14.1 7.302c1.447 0 2.634-.273 3.561-.819.927-.546 1.644-1.338 2.148-2.375a7.317 7.317 0 00.758-3.241c0-1.599-.49-2.925-1.472-3.978-.981-1.052-2.26-1.579-3.835-1.579a5.48 5.48 0 00-1.412.19 7.078 7.078 0 00-1.445.57l.376-2.612h7.036V30.28H66.37l-1.386 9.356 3.728.594c.35-.435.673-.736.967-.902a2.4 2.4 0 011.224-.345c.666 0 1.2.242 1.6.725.402.483.602 1.242.602 2.28 0 1.013-.198 1.774-.596 2.285-.397.51-.9.766-1.509.766-.544 0-1.013-.204-1.407-.612-.394-.407-.645-1.003-.752-1.787l-4.426.535c.215.815.483 1.496.806 2.042a5.608 5.608 0 001.262 1.466c.52.432 1.15.756 1.89.974.742.218 1.632.326 2.67.326zm15.679 0c1.31 0 2.4-.243 3.27-.73.87-.487 1.551-1.205 2.042-2.155.49-.95.736-1.999.736-3.146 0-1.702-.486-3.107-1.456-4.215-.97-1.108-2.157-1.663-3.561-1.663-.723 0-1.36.14-1.912.422-.552.28-1.089.714-1.612 1.3.137-1.868.348-3.087.634-3.657.394-.791.946-1.187 1.655-1.187.393 0 .725.138.993.415.269.277.46.752.575 1.425l4.35-.594c-.25-.934-.615-1.71-1.095-2.327a4.611 4.611 0 00-1.81-1.407c-.727-.32-1.717-.48-2.97-.48-2.12 0-3.778.73-4.974 2.19-1.196 1.46-1.794 3.762-1.794 6.904 0 2.146.285 3.87.854 5.171.57 1.302 1.33 2.25 2.283 2.844.952.594 2.216.89 3.792.89zm-.118-3.015c-.624 0-1.15-.268-1.58-.802-.43-.534-.644-1.272-.644-2.214 0-.926.206-1.639.618-2.137.411-.5.922-.748 1.53-.748.595 0 1.092.257 1.493.771.402.515.602 1.263.602 2.244 0 .958-.193 1.678-.58 2.161-.387.483-.867.725-1.44.725zm15.431 2.719c.143-2.043.423-3.812.838-5.308.523-1.923 1.235-3.669 2.138-5.236a17.296 17.296 0 012.782-3.598V30.28H95.021v4.085h7.777c-1.597 2.192-2.764 4.25-3.502 6.174-.738 1.923-1.278 4.306-1.622 7.148h4.361zm14.605.296c.888 0 1.724-.097 2.508-.29.784-.194 1.44-.497 1.966-.909.526-.411.97-.995 1.332-1.751a5.58 5.58 0 00.542-2.44c0-.902-.21-1.726-.628-2.47-.42-.744-1.055-1.341-1.907-1.793.645-.475 1.117-.965 1.418-1.472.401-.68.602-1.413.602-2.197 0-1.345-.503-2.461-1.51-3.348-1.006-.886-2.562-1.33-4.667-1.33-1.59 0-2.868.357-3.835 1.069-1.239.926-1.858 2.117-1.858 3.574 0 .886.214 1.67.644 2.35.315.5.816.95 1.504 1.354-.895.388-1.558.936-1.987 1.645-.43.708-.645 1.573-.645 2.594 0 1.045.23 1.99.688 2.838a4.484 4.484 0 002.008 1.923c.881.436 2.156.653 3.825.653zm-.054-11.066c-.566 0-1.019-.184-1.359-.552-.34-.368-.51-.853-.51-1.454 0-.586.166-1.063.5-1.43.332-.369.764-.553 1.294-.553.523 0 .952.188 1.289.564.336.376.505.865.505 1.466 0 .578-.161 1.05-.484 1.413a1.576 1.576 0 01-1.235.546zm-.022 8.098c-.544 0-1.027-.243-1.45-.73-.422-.487-.634-1.114-.634-1.882 0-.807.203-1.449.607-1.924.405-.474.88-.712 1.424-.712.551 0 1.036.245 1.455.736.42.491.629 1.12.629 1.888 0 .76-.208 1.387-.623 1.882-.416.495-.885.742-1.408.742z" fill="#78ACFF" fill-rule="nonzero"/><path fill="#38DAB5" d="M84 8h39v4H84z"/></g></svg>