<svg width="128" height="66" xmlns="http://www.w3.org/2000/svg"><g fill="none" fill-rule="evenodd"><path d="M0 0h128v66H0z"/><path fill="#FFC42E" d="M10 23h8v3h-8z"/><path fill="#B6BCC6" d="M22 23h16v1H22zM22 25h16v1H22zM22 32h16v1H22zM22 34h16v1H22z"/><g fill="#B6BCC6"><path d="M22 41h16v1H22zM22 43h16v1H22z"/></g><path fill="#06D1A2" opacity=".8" d="M10 32h8v3h-8z"/><path fill="#78ACFF" d="M10 41h8v3h-8z"/><g><path fill="#78ACFF" d="M51 10h68l-9.21 14H60.166z"/><path fill="#06D1A2" opacity=".8" d="M61.58 26h46.904L98.61 40H71.263z"/><path fill="#FFC42E" d="M72.65 42h24.68L87.6 56h-5.25z"/></g></g></svg>