<svg width="128" height="66" xmlns="http://www.w3.org/2000/svg"><g fill="none" fill-rule="evenodd"><path fill="#FFC42E" d="M10 22h8v3h-8z"/><path fill="#B6BCC6" d="M22 22h16v1H22zM22 24h16v1H22zM22 31h16v1H22zM22 33h16v1H22z"/><g fill="#B6BCC6"><path d="M22 40h16v1H22zM22 42h16v1H22z"/></g><path fill="#06D1A2" opacity=".8" d="M10 31h8v3h-8z"/><path fill="#78ACFF" d="M10 40h8v3h-8zM106 35c0 14.912-12.088 27-27 27S52 49.912 52 35C52 21.048 62.583 9.567 76.159 8.148 69.877 8.81 64.238 11.642 60 15.883L79 35h27z"/><path d="M59.228 11.175c4.963-4.95 11.774-8.05 19.309-8.171L79 3v28L59.228 11.175z" fill="#FFC42E"/><path d="M110 31c0-15.464-12.536-28-28-28v28h28z" fill="#06D1A2" opacity=".8"/></g></svg>