<svg width="128" height="66" xmlns="http://www.w3.org/2000/svg"><g fill="none" fill-rule="evenodd"><path d="M0 0h128v66H0z"/><path fill="#06D1A2" opacity=".8" d="M10 27h8v3h-8z"/><g fill="#B6BCC6"><path d="M22 27h16v1H22zM22 29h16v1H22z"/></g><g fill="#B6BCC6"><path d="M22 36h16v1H22zM22 38h16v1H22z"/></g><path fill="#78ACFF" d="M10 36h8v3h-8z"/><g><path fill="#78ACFF" d="M56.02 27.758L80 36l10-3.151L96.424 58l-31.94-1.102z"/><path fill="#06D1A2" opacity=".8" d="M67.424 31.879L80 3l27.006 24-24.675 12.11L79 36z"/><g opacity=".7" stroke="#DADCE5"><path d="M80 3l31.385 22.802-11.988 36.896H60.603L48.615 25.802z"/><path d="M80 14l20.923 15.202-7.992 24.596H67.07l-7.992-24.596z"/><path d="M80 26l9.51 6.91-3.632 11.18H74.122L70.49 32.91z"/><path d="M80 3v33L60.603 62.698M99.397 62.698L80 36l31.18-10M48.966 26L80 36"/></g></g></g></svg>