<?xml version="1.0" encoding="UTF-8"?>
<svg width="128px" height="66px" viewBox="0 0 128 66" version="1.1" xmlns="http://www.w3.org/2000/svg" xmlns:xlink="http://www.w3.org/1999/xlink">
    <title>指标图</title>
    <g id="仪表盘" stroke="none" stroke-width="1" fill="none" fill-rule="evenodd">
        <g id="统计分析_拖拽排序配图" transform="translate(-83.000000, -829.000000)">
            <g id="Group-34" transform="translate(67.000000, 39.000000)">
                <g id="form2-copy-7" transform="translate(8.000000, 764.000000)">
                    <g id="Group-8" transform="translate(8.000000, 26.000000)">
                        <rect id="Rectangle-Copy-29" x="0" y="0" width="128" height="66"></rect>
                        <path d="M13.8173828,47.6865647 L13.8173828,29.9833984 L10.1972656,29.9833984 C9.73177083,31.0757467 9.08723958,31.9939525 8.26367188,32.7380159 C7.44010417,33.4820792 6.28352865,34.1192823 4.79394531,34.6496254 L4.79394531,34.6496254 L4.79394531,38.6153246 C5.80371094,38.2749552 6.64339193,37.9187546 7.31298828,37.546723 C7.98258464,37.1746913 8.67545573,36.6878839 9.39160156,36.0863008 L9.39160156,36.0863008 L9.39160156,47.6865647 L13.8173828,47.6865647 Z M31.8808594,47.6865647 L31.8808594,43.7446122 L25.0488281,43.7446122 C25.4498698,43.309256 25.7989909,42.9570132 26.0961914,42.6878839 C26.3933919,42.4187546 26.9824219,41.9477784 27.8632812,41.2749552 C29.3457031,40.1192823 30.3680013,39.0585963 30.9301758,38.0928971 C31.4923503,37.1271979 31.7734375,36.1140053 31.7734375,35.0533193 C31.7734375,34.0559578 31.5281576,33.155562 31.0375977,32.3521319 C30.5470378,31.5487019 29.8738607,30.9530554 29.0180664,30.5651926 C28.1622721,30.1773298 26.9645182,29.9833984 25.4248047,29.9833984 C23.9495443,29.9833984 22.7947591,30.1872243 21.9604492,30.594876 C21.1261393,31.0025277 20.4798177,31.5882797 20.0214844,32.3521319 C19.563151,33.1159842 19.2480469,34.1786491 19.0761719,35.5401267 L19.0761719,35.5401267 L23.4589844,35.9319473 C23.5807292,34.9504169 23.8188477,34.2657203 24.1733398,33.8778575 C24.527832,33.4899947 24.984375,33.2960633 25.5429688,33.2960633 C26.0800781,33.2960633 26.5258789,33.4840581 26.8803711,33.8600475 C27.2348633,34.236037 27.4121094,34.6892032 27.4121094,35.2195462 C27.4121094,35.7103114 27.2330729,36.228781 26.875,36.7749552 C26.5169271,37.3211293 25.6969401,38.1206016 24.4150391,39.1733721 C22.3167318,40.8910502 20.8862305,42.3811557 20.1235352,43.6436887 C19.3608398,44.9062217 18.9042969,46.253847 18.7539062,47.6865647 L18.7539062,47.6865647 L31.8808594,47.6865647 Z M40.78125,47.9833984 C42.249349,47.9833984 43.4345703,47.7320792 44.3369141,47.2294407 C45.2392578,46.7268021 45.9303385,46.0104433 46.4101562,45.0803641 C46.889974,44.150285 47.1298828,43.1786491 47.1298828,42.1654565 C47.1298828,41.3580686 46.9848633,40.6634776 46.6948242,40.0816834 C46.4047852,39.4998892 45.9983724,39.0308918 45.4755859,38.6746913 C45.1533203,38.4530554 44.6878255,38.259124 44.0791016,38.0928971 C44.8310547,37.6337942 45.3932292,37.0994934 45.765625,36.4899947 C46.1380208,35.8804961 46.3242188,35.1997573 46.3242188,34.4477784 C46.3242188,33.1654565 45.8658854,32.1008127 44.9492188,31.253847 C44.0325521,30.4068813 42.5465495,29.9833984 40.4912109,29.9833984 C38.7008464,29.9833984 37.3168945,30.3712612 36.3393555,31.1469868 C35.3618164,31.9227124 34.7011719,33.0388074 34.3574219,34.4952718 L34.3574219,34.4952718 L38.4931641,35.314533 C38.6077474,34.4517362 38.8261719,33.8481742 39.1484375,33.503847 C39.4707031,33.1595198 39.8896484,32.9873562 40.4052734,32.9873562 C40.9065755,32.9873562 41.3004557,33.1456676 41.5869141,33.4622903 C41.8733724,33.7789129 42.0166016,34.2023958 42.0166016,34.7327388 C42.0166016,35.2868285 41.8250326,35.7657203 41.4418945,36.1694143 C41.0587565,36.5731082 40.5807292,36.7749552 40.0078125,36.7749552 C39.8717448,36.7749552 39.6819661,36.7551662 39.4384766,36.7155884 L39.4384766,36.7155884 L39.2128906,40.1707335 C39.8144531,39.9807599 40.2871094,39.8857731 40.6308594,39.8857731 C41.2753906,39.8857731 41.7856445,40.107409 42.1616211,40.5506808 C42.5375977,40.9939525 42.7255859,41.6192823 42.7255859,42.4266702 C42.7255859,43.2182269 42.5304362,43.8514723 42.1401367,44.3264064 C41.7498372,44.8013404 41.2610677,45.0388074 40.6738281,45.0388074 C40.1152344,45.0388074 39.6551107,44.8508127 39.293457,44.4748232 C38.9318034,44.0988338 38.6650391,43.4240317 38.4931641,42.4504169 L38.4931641,42.4504169 L34.1210938,43.0915779 C34.4075521,44.1760106 34.8175456,45.0764064 35.3510742,45.7927652 C35.8846029,46.509124 36.5649414,47.0533193 37.3920898,47.4253509 C38.2192383,47.7973826 39.3489583,47.9833984 40.78125,47.9833984 Z M60.7568359,47.6865647 L60.7568359,44.4332665 L62.7333984,44.4332665 L62.7333984,40.6812876 L60.7568359,40.6812876 L60.7568359,29.9833984 L56.9433594,29.9833984 L48.9726562,40.455694 L48.9726562,44.4332665 L56.9433594,44.4332665 L56.9433594,47.6865647 L60.7568359,47.6865647 Z M56.9433594,40.6812876 L52.7324219,40.6812876 L56.9433594,35.2076728 L56.9433594,40.6812876 Z M71.0429688,47.9833984 C72.4895833,47.9833984 73.6765951,47.7103114 74.6040039,47.1641372 C75.5314128,46.6179631 76.2475586,45.8264064 76.7524414,44.789467 C77.2573242,43.7525277 77.5097656,42.6720528 77.5097656,41.5480422 C77.5097656,39.9490976 77.0192057,38.6232401 76.0380859,37.5704697 C75.0569661,36.5176992 73.7786458,35.991314 72.203125,35.991314 C71.7376302,35.991314 71.2667643,36.0546385 70.7905273,36.1812876 C70.3142904,36.3079367 69.8326823,36.4979103 69.3457031,36.7512085 L69.3457031,36.7512085 L69.7216797,34.1390713 L76.7578125,34.1390713 L76.7578125,30.2802322 L66.3701172,30.2802322 L64.984375,39.6364327 L68.7119141,40.2301003 C69.0628255,39.7947441 69.3850911,39.4939525 69.6787109,39.3277256 C70.0725911,39.0981742 70.4807943,38.9833984 70.9033203,38.9833984 C71.5693359,38.9833984 72.1028646,39.2248232 72.5039062,39.7076728 C72.9049479,40.1905224 73.1054688,40.9504169 73.1054688,41.9873562 C73.1054688,43.0005488 72.9067383,43.7624222 72.5092773,44.2729763 C72.1118164,44.7835304 71.608724,45.0388074 71,45.0388074 C70.4557292,45.0388074 69.9866536,44.8349816 69.5927734,44.4273298 C69.1988932,44.0196781 68.9482422,43.4240317 68.8408203,42.6403905 L68.8408203,42.6403905 L64.4150391,43.1746913 C64.6298828,43.9899947 64.8984375,44.6707335 65.2207031,45.2169077 C65.5429688,45.7630818 65.9637044,46.2518681 66.4829102,46.6832665 C67.0021159,47.1146649 67.6323242,47.4392032 68.3735352,47.6568813 C69.1147461,47.8745594 70.0045573,47.9833984 71.0429688,47.9833984 Z M86.7216797,47.9833984 C88.0322266,47.9833984 89.1225586,47.7399947 89.9926758,47.2531874 C90.862793,46.76638 91.5431315,46.0480422 92.0336914,45.0981742 C92.5242513,44.1483061 92.7695312,43.0994934 92.7695312,41.9517362 C92.7695312,40.2498892 92.2843424,38.844876 91.3139648,37.7366966 C90.3435872,36.6285172 89.1565755,36.0744275 87.7529297,36.0744275 C87.0296224,36.0744275 86.3922526,36.2149288 85.8408203,36.4959314 C85.289388,36.7769341 84.7522786,37.2103114 84.2294922,37.7960633 C84.3655599,35.9279895 84.5768229,34.7089921 84.8632812,34.1390713 C85.2571615,33.3475145 85.8085938,32.9517362 86.5175781,32.9517362 C86.9114583,32.9517362 87.2426758,33.0902586 87.5112305,33.3673035 C87.7797852,33.6443483 87.9713542,34.1192823 88.0859375,34.7921056 L88.0859375,34.7921056 L92.4365234,34.198438 C92.1858724,33.2644011 91.820638,32.4886755 91.3408203,31.8712612 C90.8610026,31.253847 90.2576497,30.7848496 89.5307617,30.4642691 C88.8038737,30.1436887 87.8138021,29.9833984 86.5605469,29.9833984 C84.4407552,29.9833984 82.7828776,30.7136095 81.5869141,32.1740317 C80.3909505,33.6344538 79.7929688,35.935905 79.7929688,39.0783852 C79.7929688,41.223504 80.0776367,42.9471188 80.6469727,44.2492296 C81.2163086,45.5513404 81.9772135,46.4992296 82.9296875,47.0928971 C83.8821615,47.6865647 85.1461589,47.9833984 86.7216797,47.9833984 Z M86.6035156,44.9675673 C85.9804688,44.9675673 85.4541016,44.7004169 85.0244141,44.1661161 C84.5947266,43.6318153 84.3798828,42.8936887 84.3798828,41.9517362 C84.3798828,41.0256148 84.5857747,40.3132137 84.9975586,39.814533 C85.4093424,39.3158523 85.9195964,39.0665119 86.5283203,39.0665119 C87.1227214,39.0665119 87.6204427,39.3237678 88.0214844,39.8382797 C88.422526,40.3527916 88.6230469,41.1008127 88.6230469,42.082343 C88.6230469,43.0401267 88.4296875,43.7604433 88.0429688,44.2432929 C87.65625,44.7261425 87.1764323,44.9675673 86.6035156,44.9675673 Z M102.035156,47.6865647 C102.178385,45.6443483 102.457682,43.875219 102.873047,42.3791768 C103.395833,40.455694 104.108398,38.7103114 105.010742,37.143029 C105.755534,35.8527916 106.682943,34.6535831 107.792969,33.5454037 L107.792969,33.5454037 L107.792969,30.2802322 L95.0205078,30.2802322 L95.0205078,34.3646649 L102.797852,34.3646649 C101.200846,36.5572771 100.033529,38.6153246 99.2958984,40.5388074 C98.5582682,42.4622903 98.0175781,44.844876 97.6738281,47.6865647 L97.6738281,47.6865647 L102.035156,47.6865647 Z M116.639648,47.9833984 C117.527669,47.9833984 118.36377,47.8864327 119.147949,47.6925013 C119.932129,47.4985699 120.587402,47.1957995 121.11377,46.78419 C121.640137,46.3725805 122.084147,45.7888074 122.445801,45.0328707 C122.807454,44.2769341 122.988281,43.4636095 122.988281,42.5928971 C122.988281,41.6905224 122.778809,40.8673035 122.359863,40.1232401 C121.940918,39.3791768 121.305339,38.7815515 120.453125,38.3303641 C121.097656,37.8554301 121.570312,37.3646649 121.871094,36.8580686 C122.272135,36.1773298 122.472656,35.4451399 122.472656,34.6614987 C122.472656,33.3158523 121.969564,32.1997573 120.963379,31.3132137 C119.957194,30.4266702 118.401367,29.9833984 116.295898,29.9833984 C114.706055,29.9833984 113.427734,30.339599 112.460938,31.052 C111.222005,31.9781214 110.602539,33.1694143 110.602539,34.6258786 C110.602539,35.5124222 110.817383,36.2960633 111.24707,36.9768021 C111.562174,37.4754829 112.063477,37.9266702 112.750977,38.3303641 C111.855794,38.7182269 111.193359,39.26638 110.763672,39.9748232 C110.333984,40.6832665 110.119141,41.5480422 110.119141,42.5691504 C110.119141,43.6140053 110.348307,44.5599156 110.806641,45.4068813 C111.264974,46.253847 111.93457,46.8950079 112.81543,47.3303641 C113.696289,47.7657203 114.971029,47.9833984 116.639648,47.9833984 Z M116.585938,36.9174354 C116.020182,36.9174354 115.56722,36.7333984 115.227051,36.3653246 C114.886882,35.9972507 114.716797,35.5124222 114.716797,34.9108391 C114.716797,34.3250871 114.883301,33.8481742 115.216309,33.4801003 C115.549316,33.1120264 115.980794,32.9279895 116.510742,32.9279895 C117.033529,32.9279895 117.463216,33.1159842 117.799805,33.4919736 C118.136393,33.8679631 118.304688,34.3567494 118.304688,34.9583325 C118.304688,35.5361689 118.143555,36.0071451 117.821289,36.3712612 C117.499023,36.7353773 117.08724,36.9174354 116.585938,36.9174354 Z M116.564453,45.0150607 C116.020182,45.0150607 115.536784,44.771657 115.114258,44.2848496 C114.691732,43.7980422 114.480469,43.1707335 114.480469,42.4029235 C114.480469,41.5955356 114.68278,40.9543747 115.087402,40.4794407 C115.492025,40.0045066 115.966471,39.7670396 116.510742,39.7670396 C117.062174,39.7670396 117.547363,40.0124222 117.966309,40.5031874 C118.385254,40.9939525 118.594727,41.6232401 118.594727,42.3910502 C118.594727,43.1509446 118.387044,43.7782533 117.97168,44.2729763 C117.556315,44.7676992 117.08724,45.0150607 116.564453,45.0150607 Z" id="12345678" fill="#78ACFF" fill-rule="nonzero"></path>
                        <rect id="Rectangle-Copy-39" fill="#38DAB5" x="84" y="8" width="39" height="4"></rect>
                    </g>
                </g>
            </g>
        </g>
    </g>
</svg>