<?xml version="1.0" encoding="UTF-8"?>
<svg width="128px" height="66px" viewBox="0 0 128 66" version="1.1" xmlns="http://www.w3.org/2000/svg" xmlns:xlink="http://www.w3.org/1999/xlink">
    <title>漏斗图</title>
    <g id="仪表盘" stroke="none" stroke-width="1" fill="none" fill-rule="evenodd">
        <g id="统计分析_拖拽排序配图" transform="translate(-83.000000, -721.000000)">
            <g id="Group-34" transform="translate(67.000000, 39.000000)">
                <g id="form2-copy-6" transform="translate(8.000000, 656.000000)">
                    <g id="Group-7" transform="translate(8.000000, 26.000000)">
                        <rect id="Rectangle-Copy-29" x="0" y="0" width="128" height="66"></rect>
                        <g id="Group" transform="translate(10.000000, 23.000000)">
                            <rect id="Rectangle" fill="#FFC42E" x="0" y="0" width="8" height="3"></rect>
                            <rect id="Rectangle-Copy-20" fill="#B6BCC6" x="12" y="0" width="16" height="1"></rect>
                            <rect id="Rectangle-Copy-37" fill="#B6BCC6" x="12" y="2" width="16" height="1"></rect>
                            <rect id="Rectangle-Copy-35" fill="#B6BCC6" x="12" y="9" width="16" height="1"></rect>
                            <rect id="Rectangle-Copy-38" fill="#B6BCC6" x="12" y="11" width="16" height="1"></rect>
                            <g id="Group-40" transform="translate(12.000000, 18.000000)" fill="#B6BCC6">
                                <rect id="Rectangle-Copy-36" x="0" y="0" width="16" height="1"></rect>
                                <rect id="Rectangle-Copy-39" x="0" y="2" width="16" height="1"></rect>
                            </g>
                            <rect id="Rectangle-Copy-31" fill="#06D1A2" opacity="0.800000012" x="0" y="9" width="8" height="3"></rect>
                            <rect id="Rectangle-Copy-32" fill="#78ACFF" x="0" y="18" width="8" height="3"></rect>
                        </g>
                        <g id="Group-2" transform="translate(51.000000, 10.000000)">
                            <polygon id="Rectangle" fill="#78ACFF" points="0 0 68 0 58.79041 14 9.16605444 14"></polygon>
                            <polygon id="Rectangle-Copy" fill="#06D1A2" opacity="0.800000012" points="10.5795183 16 57.4842809 16 47.6102911 30 20.262935 30"></polygon>
                            <polygon id="Rectangle-Copy-2" fill="#FFC42E" points="21.6506601 32 46.3307292 32 36.5997305 46 31.3497739 46"></polygon>
                        </g>
                    </g>
                </g>
            </g>
        </g>
    </g>
</svg>