<?xml version="1.0" encoding="UTF-8"?>
<svg width="128px" height="66px" viewBox="0 0 128 66" version="1.1" xmlns="http://www.w3.org/2000/svg" xmlns:xlink="http://www.w3.org/1999/xlink">
    <title>地图</title>
    <g id="仪表盘" stroke="none" stroke-width="1" fill="none" fill-rule="evenodd">
        <g id="统计分析_拖拽排序配图" transform="translate(-83.000000, -1047.000000)">
            <g id="Group-34" transform="translate(67.000000, 39.000000)">
                <g id="form2-copy-10" transform="translate(8.000000, 982.000000)">
                    <g id="Group-7" transform="translate(8.000000, 26.000000)">
                        <rect id="Rectangle-Copy-29" x="0" y="0" width="128" height="66"></rect>
                        <g id="Group" transform="translate(10.000000, 4.000000)">
                            <rect id="Rectangle" fill="#FFC42E" x="0" y="19" width="8" height="3"></rect>
                            <g id="map_area" transform="translate(42.000000, 0.000000)">
                                <path d="M59.133125,52.2771875 C58.915625,52.24625 59.103125,51.9246875 58.803125,51.8084375 L58.803125,51.678125 L58.743125,51.6096875 C58.638125,51.53375 58.503125,51.57125 58.360625,51.5028125 C58.360625,51.3959375 58.278125,51.3265625 58.248125,51.18125 C58.113125,51.18125 58.143125,51.0209375 58.083125,50.9140625 L57.813125,50.6328125 C57.843125,50.395625 58.015625,50.1125 57.978125,49.8378125 C57.948125,49.7309375 57.948125,49.585625 57.843125,49.51625 C57.8954417,49.0466308 58.0462235,48.593327 58.285625,48.1859375 C58.285625,48.040625 58.255625,47.8109375 58.379375,47.635625 L58.589375,47.52125 C58.656875,47.444375 58.656875,47.245625 58.683125,47.0778125 C58.758125,46.8903125 59.050625,46.863125 59.110625,46.5884375 C59.2613018,46.5696721 59.3986219,46.4925979 59.493125,46.37375 C59.605625,46.37375 59.774375,46.266875 59.913125,46.266875 C60.006875,46.37375 60.048125,46.5190625 60.273125,46.5575 C60.505625,47.451875 60.273125,48.545 60.235625,49.5575 C59.980625,50.0009375 60.141875,50.635625 59.778125,51.0640625 C59.673125,51.30125 59.740625,51.5834375 59.703125,51.8515625 C59.673125,52.0390625 59.635625,52.1721875 59.448125,52.2490625 C59.343125,52.2153125 59.268125,52.323125 59.133125,52.2771875 Z M43.0521875,59.4415625 C42.9921875,59.3646875 42.8196875,59.3271875 42.6546875,59.2540625 L42.5796875,59.1471875 C42.4596875,59.11625 42.2984375,59.1471875 42.1596875,59.0403125 L42.0546875,58.925 C42.0246875,58.803125 42.0546875,58.6578125 41.9609375,58.52 L41.8671875,58.4440625 C41.8671875,58.221875 41.7734375,58.030625 41.7996875,57.7784375 C41.8296875,57.6715625 42.0171875,57.6021875 41.9871875,57.4034375 C42.3109294,57.1088925 42.6555812,56.8381842 43.0184375,56.5934375 C43.2734375,56.5934375 43.4084375,56.5240625 43.6484375,56.4059375 C43.7984375,56.4059375 43.7984375,56.5203125 43.9709375,56.55125 L44.1809375,56.5203125 L44.2746875,56.3328125 L44.2071875,56.2390625 C44.0675022,56.2048385 43.9317678,56.1561375 43.8021875,56.09375 C43.7196875,55.986875 43.5846875,55.90625 43.5209375,55.7721875 C43.5209375,55.535 43.3484375,55.3971875 43.3184375,55.1159375 L43.2134375,55.0015625 C43.1834375,54.87125 43.1834375,54.695 43.1459375,54.5571875 L43.1009375,54.48125 C42.9284375,54.4503125 42.7934375,54.4503125 42.5909375,54.404375 C42.5084375,54.310625 42.3734375,54.2825 42.3096875,54.1371875 C42.0717244,54.0636087 41.823751,54.0275513 41.5746875,54.0303125 C41.3421875,54.0303125 41.4096875,54.2440625 41.1921875,54.3209375 C40.9855184,54.3668186 40.7736318,54.3847911 40.5621875,54.374375 C40.3092548,54.2774589 40.063621,54.1624747 39.8271875,54.0303125 C39.6996875,54.0303125 39.4746875,54.0603125 39.3021875,53.9534375 C39.1671875,53.7396875 38.9346875,53.5784375 38.7471875,53.32625 C38.6796875,53.28875 38.6796875,53.13875 38.6121875,52.9821875 C38.5821875,52.73 38.7059375,52.446875 38.6421875,52.1384375 L38.5371875,52.07 C38.4434375,52.07 38.2559375,52.1 38.1171875,52.1 C37.7130441,51.9546649 37.3257947,51.7660695 36.9621875,51.5375 C36.9246875,51.725 36.6546875,51.8046875 36.5796875,52.026875 C36.4859375,52.1646875 36.2271875,52.240625 36.1221875,52.4703125 C35.9496875,52.615625 35.6346875,52.5471875 35.3946875,52.5471875 C35.2896875,52.5846875 35.2521875,52.6925 35.0646875,52.7346875 C34.5771875,52.5471875 34.0334375,52.7346875 33.4971875,52.5209375 C33.3792871,52.5181497 33.2644866,52.5588638 33.1746875,52.6353125 L33.0621875,52.8575 C32.8866288,52.8619768 32.7110054,52.8516276 32.5371875,52.8265625 C32.4021875,52.8575 32.2296875,52.8265625 32.1096875,52.971875 C32.0421875,53.4846875 32.3271875,54.1109375 32.0159375,54.6003125 C31.8509375,54.5628125 31.8134375,54.738125 31.6109375,54.7765625 C31.501093,54.7666922 31.3928237,54.7437165 31.2884375,54.708125 C31.115,54.6003125 31.1825,54.3865625 30.9275,54.333125 C30.8855095,54.1509343 30.830365,53.9720278 30.7625,53.7978125 L30.6875,53.7209375 C30.4775,53.7209375 30.5525,53.9740625 30.335,54.0425 C30.2,54.0425 29.9975,54.0809375 29.825,53.965625 C29.7449574,53.8541581 29.6503692,53.7538947 29.54375,53.6675 C29.47625,53.63 29.47625,53.4153125 29.37875,53.346875 C29.2716312,53.3042278 29.1947554,53.208489 29.17625,53.0946875 C29.0840276,53.0163659 28.9672384,52.9729018 28.84625,52.971875 C28.77125,52.8959375 28.68125,52.8575 28.57625,52.758125 C28.52375,52.65125 28.42625,52.6128125 28.38125,52.4140625 C28.38125,52.199375 28.41875,52.0240625 28.41875,51.7578125 C28.59875,51.681875 28.44875,51.505625 28.56875,51.3303125 C28.475,51.215 28.34375,51.185 28.17875,51.093125 C28.10375,50.916875 27.93875,50.8484375 27.84875,50.59625 C27.84875,50.3590625 27.81875,50.1828125 27.81875,49.94 L27.725,49.7028125 C27.41,49.5153125 26.96,49.74125 26.5625,49.626875 L26.40875,49.53125 C26.3213134,49.0570713 26.3011149,48.572939 26.34875,48.093125 C26.37875,47.894375 26.61875,47.9253125 26.68625,47.718125 L26.68625,47.5034375 C26.83625,47.320625 26.9675,46.9840625 27.27875,46.87625 C27.39875,46.7309375 27.54125,46.5321875 27.73625,46.4253125 C27.83,46.356875 27.83,46.173125 27.83,45.974375 C27.9330133,45.8492221 28.0072644,45.7029601 28.0475,45.5459375 C28.0175,45.3171875 28.0775,45.1334375 28.115,44.8896875 C28.22,44.5146875 28.115,44.369375 28.115,44.155625 L27.98,43.956875 L27.7625,43.8875 C27.5825,43.4975 27.4175,43.1 27.2675,42.695 C27.17375,42.6640625 27.095,42.695 26.9675,42.6640625 C26.8925,42.771875 26.68625,43.008125 26.6075,43.184375 C26.3975,43.371875 26.045,43.2528125 25.775,43.29125 C25.385,43.1459375 25.1525,42.809375 24.8225,42.588125 L24.41,42.588125 L24.155,42.775625 C24.0125,42.775625 23.945,42.8975 23.75,42.9284375 L23.63,42.9284375 L23.42,43.004375 C23.2561328,43.1398534 23.0804267,43.2603375 22.895,43.364375 C22.73,43.6315625 22.3325,43.593125 21.995,43.739375 L21.9275,43.84625 C21.8075,43.8846875 21.7775,43.9915625 21.5975,44.03375 L21.395,44.03375 C21.29,44.0721875 21.2525,44.2025 21.065,44.2325 C20.6488707,44.3257339 20.2162205,44.3154327 19.805,44.2025 L19.565,43.934375 C19.4975,43.746875 19.565,43.61375 19.535,43.371875 C19.3705917,43.170377 19.1695592,43.0017897 18.9425,42.875 C18.866641,42.7121815 18.7404264,42.5780785 18.5825,42.4925 L18.48875,42.2778125 L18.27875,42.1484375 L18.17375,41.93375 C17.99375,41.819375 17.68625,41.7884375 17.43125,41.72 L17.22125,41.52125 L16.59875,41.52125 C16.45625,41.6815625 16.23125,41.7884375 16.13,41.9646875 C16.13,42.1521875 16.025,42.2778125 15.9575,42.4925 C15.9275,42.5609375 15.7925,42.5609375 15.635,42.6378125 C15.54125,42.6378125 15.365,42.5609375 15.23,42.5225 C14.975,42.24125 15.26,41.67875 14.975,41.3375 C14.81,41.3759375 14.6675,41.51375 14.45,41.4828125 C14.315,41.4528125 14.285,41.230625 14.1125,41.1621875 L13.5875,41.1621875 L13.2575,40.9746875 C12.95,40.8978125 12.56,40.6990625 12.22625,40.630625 C12.08375,40.630625 12.03125,40.51625 11.90375,40.443125 C11.69375,40.443125 11.40875,40.443125 11.1678125,40.33625 C11.0846988,40.193448 11.0168259,40.0423051 10.9653125,39.8853125 C10.7703125,39.846875 10.6353125,39.74 10.4403125,39.670625 C10.3706812,39.591473 10.3148988,39.5011436 10.2753125,39.4034375 C10.2800791,39.2944012 10.2648273,39.1854142 10.2303125,39.081875 C10.0878125,39.0134375 9.9228125,38.9825 9.7503125,38.883125 L9.6378125,38.669375 L9.4278125,38.5625 C9.3340625,38.463125 9.3603125,38.195 9.3340625,38.01125 L9.1540625,37.8359375 L8.9375,37.6878125 C8.8025,37.5940625 8.57,37.5940625 8.4125,37.458125 C8.01980211,36.6755468 7.47847909,35.9769216 6.81875,35.40125 C6.71039429,35.3984781 6.60210262,35.4088666 6.49625,35.4321875 C6.35375,35.5390625 6.29375,35.7134375 6.09125,35.77625 C6.02375,35.6825 5.83625,35.6825 5.70125,35.5775 C5.53448009,35.2407049 5.33608868,34.9205162 5.10875,34.62125 C5.00375,34.4759375 4.96625,34.20875 4.8275,34.05875 C4.60142954,33.8194405 4.39336237,33.5637435 4.205,33.29375 L3.98,33.2553125 C3.88625,33.1334375 3.815,32.9196875 3.6125,32.8428125 C3.4625,32.1771875 3.6125,31.5509375 3.51875,30.854375 C3.6125,30.7475 3.51875,30.54875 3.6125,30.4109375 C3.7475,30.335 3.815,30.2234375 4.0175,30.15875 L4.11125,30.15875 C4.23125,30.265625 4.26875,30.4109375 4.47125,30.449375 L4.57625,30.2965625 C4.57625,29.669375 4.43375,29.15 4.36625,28.668125 C4.48292393,28.4848164 4.58571116,28.2930305 4.67375,28.094375 C4.39171808,27.5465974 4.25242088,26.9365273 4.26875,26.320625 C4.26875,26.0525 3.9875,26.320625 3.88625,26.0834375 L3.66125,26.0834375 C3.33125,25.9071875 3.09875,25.5021875 2.80625,25.165625 C2.64125,25.135625 2.60375,25.0203125 2.40125,24.951875 L2.31875,24.875 C2.15375,24.355625 2.31875,23.766875 2.15375,23.208125 C1.98125,23.1321875 1.94375,22.8640625 1.77125,22.71875 C1.55375,22.611875 1.44875,22.4665625 1.20875,22.29125 C1.17874948,22.1421188 1.17874948,21.9885062 1.20875,21.839375 C1.35125,21.6940625 1.55375,21.6565625 1.80875,21.53375 L1.87625,21.4653125 L1.87625,21.03125 C1.94375,20.8325 2.04875,20.7246875 2.11625,20.46875 C2.11625,20.361875 2.08625,20.163125 2.08625,20.0253125 C2.04875,19.9184375 2.04875,19.773125 1.94375,19.6971875 C1.68125,19.574375 1.48625,19.6971875 1.20875,19.5359375 C1.14875,19.4675 1.09625,19.3221875 0.95375,19.2546875 L0.89375,19.025 L0.96125,18.8103125 C1.06625,18.6959375 1.17875,18.6228125 1.29125,18.45125 C1.19972562,18.1583236 1.21030217,17.8430099 1.32125,17.556875 C1.46375,17.556875 1.49375,17.45 1.62875,17.369375 L1.65875,17.2625 C1.88717518,17.1576208 2.09145046,17.0066487 2.25875,16.8190625 C2.54,16.7046875 2.78375,16.780625 3.1025,16.7421875 L3.305,16.6278125 C3.58625,16.6278125 3.83,16.773125 4.1375,16.7421875 C4.2875,16.7421875 4.41875,16.8875 4.49,17.0234375 C4.6625,17.091875 4.8125,17.0234375 5.015,17.054375 C5.225,16.9475 5.285,16.8096875 5.54,16.7328125 L5.63375,16.5115625 C5.66375,16.4178125 5.80625,16.4178125 5.94125,16.3503125 C6.15875,16.3503125 6.46625,16.38875 6.65375,16.1675 C7.28375,15.9528125 7.8725,16.1675 8.54375,16.2434375 C8.81375,16.1365625 9.13625,15.9621875 9.47375,15.99125 L9.66875,15.884375 C9.80375,15.57875 10.07375,15.228125 10.00625,14.7753125 L10.21625,14.5878125 C10.33625,14.5878125 10.33625,14.4275 10.47125,14.320625 L10.565,14.320625 L10.6325,14.2596875 C10.6625,13.4871875 10.6625,12.64625 10.7,11.8128125 C10.8875,11.7434375 10.73,11.568125 10.85,11.384375 C11.0225,11.384375 11.0225,11.1471875 11.2175,11.10875 C11.7134375,11.185625 12.3425,10.895 12.7709375,11.3459375 L13.6259375,11.3459375 L13.7196875,11.185625 C13.7571875,10.9409375 13.7196875,10.716875 13.8246875,10.420625 L14.0196875,10.2753125 L14.0796875,10.0615625 C14.1341298,9.95248719 14.2170572,9.86016562 14.3196875,9.794375 C14.3927387,9.60168444 14.4779088,9.41380911 14.5746875,9.231875 C14.7471875,9.1934375 14.6684375,8.9796875 14.8146875,8.841875 C14.9796875,8.8034375 15.0171875,8.643125 15.2046875,8.5671875 C15.4746875,8.5671875 15.6471875,8.834375 15.9996875,8.91125 C16.1346875,8.94125 16.2021875,9.1559375 16.4196875,9.1925 L16.5134375,9.1925 L16.8884375,9.3003125 C17.1069542,9.30219634 17.3228223,9.25240534 17.5184375,9.155 C17.6384375,9.1240625 17.6121875,8.8334375 17.7359375,8.7490625 C17.7059375,8.4678125 17.6684375,8.0459375 17.8709375,7.7628125 C17.9084375,7.686875 18.1521875,7.7328125 18.1521875,7.5490625 C18.2571875,7.510625 18.4221875,7.5490625 18.5571875,7.510625 C18.7134928,7.48574168 18.8550738,7.40393194 18.9546875,7.2809375 L18.9846875,7.1665625 C19.0784375,7.0671875 19.0784375,6.9528125 19.2171875,6.845 C19.7121875,6.723125 20.3046875,6.47 20.7996875,6.6921875 C20.9646875,7.0671875 20.7621875,7.625 20.9346875,8.084375 C21.0839196,8.18080758 21.2074679,8.31207773 21.2946875,8.466875 C21.4221875,8.496875 21.5271875,8.60375 21.5946875,8.8025 C21.7247945,8.90094633 21.8724077,8.97379853 22.0296875,9.0171875 C22.1234375,9.055625 22.1946875,8.9403125 22.3296875,8.97875 C22.4871875,9.055625 22.5246875,9.269375 22.7196875,9.3003125 C22.7496875,9.37625 22.7496875,9.5365625 22.8621875,9.6059375 C22.8921875,9.8871875 22.8621875,10.2621875 22.9559375,10.5846875 L23.0759375,10.660625 C23.3084375,11.0046875 23.1359375,11.4865625 23.3459375,11.8840625 C23.2521875,12.1821875 23.2109375,12.5403125 22.9259375,12.816875 C22.8871678,13.1096386 22.8973058,13.4068093 22.9559375,13.69625 C23.20651,13.8629152 23.4988708,13.955821 23.7996875,13.964375 L23.9646875,14.1096875 C24.3996875,14.2165625 24.8871875,14.255 25.2246875,14.553125 L25.4421875,14.553125 C25.7496875,14.6290625 25.9221875,14.950625 26.2746875,15.0884375 C26.2932015,15.2411188 26.3245627,15.3919662 26.3684375,15.539375 C26.5784375,15.5703125 26.5784375,15.8834375 26.8034375,15.9828125 L26.8971875,15.9828125 C26.9909375,16.02125 27.1371875,16.02125 27.1971875,16.128125 C27.3171875,16.304375 27.2909375,16.6484375 27.3171875,16.900625 L27.5271875,17.20625 C27.4971875,17.3515625 27.6621875,17.42 27.6321875,17.6346875 C27.6921875,17.710625 27.7259375,17.8334375 27.8496875,17.9403125 L27.8496875,18.1540625 C27.8496875,18.261875 27.9921875,18.261875 28.0221875,18.460625 C28.1159375,18.490625 28.2246875,18.6059375 28.3971875,18.674375 C28.5846875,18.6434375 28.5846875,18.8196875 28.7871875,18.861875 C29.2821875,18.861875 29.7396875,18.96875 30.2496875,19.0990625 L30.4371875,19.244375 C31.270625,19.2059375 32.005625,19.38125 32.853125,19.38125 C32.995625,19.4196875 33.025625,19.56875 33.228125,19.5959375 L33.6875,19.5959375 C33.8271082,19.7052786 33.972304,19.8072912 34.1225,19.9015625 C34.1225,20.0084375 34.19,20.0778125 34.21625,20.2221875 C34.48625,20.345 34.74125,20.2221875 35.04875,20.421875 C35.11625,20.635625 35.37125,20.7425 35.50625,20.9721875 C35.92625,21.048125 36.30125,20.9721875 36.76625,21.010625 C36.90125,21.040625 36.93125,21.1859375 37.15625,21.224375 C37.5230925,21.1115716 37.8626852,20.9242211 38.15375,20.6740625 C38.2670003,20.6652448 38.3782619,20.6393259 38.48375,20.5971875 L38.61875,20.4096875 C38.79125,20.3796875 38.94875,20.34125 39.14375,20.2878125 L39.31625,20.1003125 C39.84125,19.925 40.40375,19.8865625 40.89875,19.74125 C41.210697,19.7523942 41.522867,19.7265899 41.82875,19.664375 C42.2783919,19.704326 42.731525,19.6726827 43.17125,19.570625 C43.27625,19.4946875 43.30625,19.349375 43.38125,19.180625 C43.5390452,18.9909322 43.7148685,18.8169927 43.90625,18.66125 C44.0101437,18.6649129 44.1139547,18.6519365 44.21375,18.6228125 C44.32625,18.5234375 44.32625,18.3171875 44.43125,18.179375 C44.5396717,18.1464967 44.62599,18.0640071 44.66375,17.9571875 L44.66375,17.8428125 L44.49875,17.6440625 C44.39375,17.4303125 44.16875,17.215625 44.06375,16.8790625 C44.10125,16.5884375 44.06375,16.3165625 44.10125,15.9996875 C44.20625,15.9621875 44.31875,15.9621875 44.35625,15.7634375 C44.480545,15.673286 44.6168738,15.6010191 44.76125,15.54875 C45.39125,15.441875 45.99125,15.8553125 46.65125,15.655625 C46.80125,15.655625 46.83875,15.54875 46.97375,15.4803125 L47.04125,15.3659375 L47.25125,15.258125 C47.4755467,15.0667711 47.6837467,14.8573169 47.87375,14.631875 C48.06875,14.555 48.20375,14.555 48.40625,14.470625 L48.54125,14.3253125 C48.72875,14.3253125 48.90125,14.2259375 49.06625,14.1115625 C49.09625,13.8359375 49.25375,13.660625 49.25375,13.3390625 L49.28375,13.270625 C49.3478339,13.1749303 49.4433358,13.1046303 49.55375,13.071875 L49.87625,13.071875 C50.14625,12.9265625 50.28125,12.603125 50.61125,12.3678125 L51.1371875,12.3678125 L51.3771875,12.1925 C51.6996875,12.1925 52.0334375,12.085625 52.4346875,12.115625 L52.5696875,11.9703125 C52.5696875,11.8175 52.4646875,11.7715625 52.3896875,11.62625 C52.2546875,11.62625 52.2546875,11.4884375 52.1421875,11.3815625 C51.9696875,11.343125 51.8721875,11.144375 51.7296875,10.9690625 L51.5121875,10.8696875 L51.40625,10.6503125 C51.27125,10.5734375 51.03125,10.619375 50.8803125,10.7440625 L50.75,10.9634375 C50.5475,10.9634375 50.48,11.1396875 50.2925,11.2446875 C50.1875,11.20625 50.06,11.2446875 49.9175,11.1378125 L49.73,10.9925 L49.325,10.9925 L49.04375,11.20625 C48.8802271,11.2871266 48.7011123,11.3315855 48.51875,11.3365625 L48.30875,11.17625 L48.24125,11.099375 C48.21125,10.9925 48.10625,10.9615625 48.07625,10.77875 C48.07625,10.40375 48.17,9.9528125 48.24125,9.5553125 L48.34625,9.4559375 C48.37625,9.111875 48.51125,8.8934375 48.60125,8.560625 L48.70625,8.4846875 C48.73625,8.1246875 48.97625,7.8884375 49.11125,7.566875 L49.205,7.49 C49.61,7.4440625 50,7.49 50.4575,7.49 C50.5625,7.4440625 50.6975,7.4440625 50.7725,7.3296875 C50.9375,7.0775 51.1934375,6.8609375 51.42875,6.595625 C51.56375,6.305 51.49625,6.033125 51.56375,5.71625 C51.71375,5.4875 51.78125,5.1275 51.95375,4.821875 L52.05875,4.745 C52.1525,4.6690625 52.1525,4.4928125 52.1525,4.3175 C52.19,4.2790625 52.3475,4.11875 52.4075,4.049375 L52.5125,3.835625 C52.445,3.6209375 52.5425,3.4221875 52.4825,3.17 L52.4075,3.1015625 C52.2425,3.1015625 52.085,3.063125 51.8825,3.063125 L51.65,2.7575 L51.65,2.55125 C51.74375,2.4359375 51.815,2.283125 51.92,2.1378125 L52.19,2.099375 C52.31,2.099375 52.385,2.0309375 52.47125,1.9240625 C52.50125,1.8471875 52.50125,1.709375 52.61375,1.6184375 L52.81625,1.5875 L52.86125,1.480625 L52.93625,1.40375 C53.1356166,1.3309126 53.3465058,1.29470573 53.55875,1.296875 C53.73125,1.296875 53.76875,1.109375 53.96375,1.083125 C54.12125,1.083125 54.18875,0.9603125 54.39125,0.921875 C54.56375,0.921875 54.81875,0.9603125 55.01375,0.8534375 C55.22375,0.9603125 55.41125,0.884375 55.64375,0.921875 C55.8885416,0.977966601 56.1146325,1.09650285 56.3,1.2659375 C56.405,1.2659375 56.495,1.19 56.58125,1.083125 C56.75375,0.989375 56.88875,1.083125 57.10625,1.0296875 C57.17375,1.19 57.41375,1.1590625 57.51125,1.296875 C57.58625,1.3278125 57.58625,1.5490625 57.70625,1.6184375 C57.87125,1.77875 57.93875,1.9934375 58.20875,2.16875 C58.23875,2.3140625 58.20875,2.5128125 58.35875,2.6196875 L58.46375,2.6965625 C58.5575,2.765 58.53125,3.040625 58.66625,3.1475 C58.8540304,3.26076496 58.9828316,3.45054126 59.01875,3.666875 C59.0989009,3.81566217 59.1891104,3.95880711 59.28875,4.0953125 C59.39375,4.0953125 59.46125,4.1721875 59.61875,4.1946875 C59.64875,4.2884375 59.64875,4.4703125 59.78375,4.5003125 C59.81375,4.7909375 59.91875,5.0515625 59.99375,5.3796875 C60.06125,5.3796875 60.14375,5.525 60.18125,5.6478125 L60.34625,5.8353125 C60.77375,5.980625 61.33625,5.91125 61.80875,5.9496875 C61.98875,6.0875 62.16875,6.1634375 62.33375,6.3246875 C62.46875,6.3246875 62.68625,6.28625 62.85875,6.393125 C62.9739398,6.57511597 63.1307526,6.72710873 63.31625,6.8365625 C63.3380318,6.94887538 63.4137923,7.04322522 63.51875,7.08875 C63.5928985,7.21812723 63.6484447,7.35730824 63.68375,7.5021875 L63.71375,7.7159375 L63.83375,7.746875 C63.97625,7.784375 64.10375,7.960625 64.23875,8.0675 C64.59125,8.0675 64.86875,7.8921875 65.25875,7.78625 C65.42375,7.6409375 65.42375,7.41125 65.67875,7.3353125 C65.67875,7.19 65.85125,7.1215625 65.82125,6.906875 C65.95625,6.708125 66.12125,6.678125 66.38375,6.60125 C66.54875,6.3490625 66.87125,6.1503125 67.11125,5.945 L67.31375,5.945 L67.50875,5.7996875 L67.6025,5.7996875 L67.8125,5.9871875 C67.8430369,6.0969787 67.8430369,6.2130213 67.8125,6.3228125 C67.7164212,6.41050634 67.6441664,6.52114656 67.6025,6.644375 C67.6025,6.843125 67.67,6.9884375 67.6025,7.1946875 C67.7530889,7.46546539 67.7669901,7.79144756 67.64,8.0740625 L67.535,8.1678125 C67.28,9.2309375 67.535,10.446875 67.4,11.5934375 C67.355,11.7003125 67.30625,11.9140625 67.205,12.044375 C67.11125,12.0828125 67.07,12.15125 67.0025,12.335 C66.5825,12.2965625 66.15875,12.2590625 65.7425,12.4803125 L65.7125,12.71 C65.6075,12.8553125 65.3525,12.8853125 65.255,13.1 C65.255,13.206875 65.34875,13.405625 65.34875,13.5434375 C65.42375,13.8340625 65.70875,14.0328125 65.70875,14.4228125 C65.99,14.8053125 65.88875,15.3603125 66.02375,15.8834375 C65.88875,16.0278125 65.78375,16.2425 65.61875,16.4178125 C65.525,16.724375 65.61875,17.0065625 65.43125,17.313125 L65.36375,17.3890625 C65.2649177,17.4278409 65.1550823,17.4278409 65.05625,17.3890625 L64.98875,17.1753125 C64.8944799,17.1044475 64.7832881,17.0595182 64.66625,17.045 C64.49375,17.24375 64.42625,17.534375 64.23875,17.84 C63.99875,18.0846875 63.71375,18.3378125 63.47375,18.68375 C63.47375,18.8290625 63.57875,18.8665625 63.64625,19.004375 C63.64625,19.203125 63.54125,19.2415625 63.48125,19.4178125 L63.27125,19.563125 C62.77625,19.685 62.31875,19.563125 61.79375,19.4553125 C61.68875,19.48625 61.55375,19.48625 61.48625,19.600625 C61.3973987,19.7439463 61.3220741,19.8952232 61.26125,20.0525 L61.26125,20.159375 L61.09625,20.358125 C61.06625,20.465 60.96125,20.5034375 60.93125,20.67875 L60.93125,20.7865625 C60.93125,21.0228125 60.65,21.0921875 60.60125,21.344375 L60.53375,21.558125 C60.22625,21.719375 60.32375,21.933125 60.22625,22.0784375 C60.0201368,22.181606 59.8578237,22.3552277 59.76875,22.5678125 L59.76875,22.6746875 C59.3822832,23.0244875 58.8739611,23.208628 58.353125,23.1875 C58.203125,23.2634375 58.071875,23.286875 57.933125,23.478125 C57.933125,23.6 57.865625,23.676875 57.828125,23.8146875 C57.7643784,23.9368651 57.6778188,24.0457011 57.573125,24.1353125 C57.573125,24.258125 57.505625,24.3340625 57.479375,24.479375 L57.265625,24.6875 C57.235625,24.764375 57.235625,24.9246875 57.130625,24.9940625 L57.018125,24.9940625 C56.943125,25.07 56.913125,25.1815625 56.808125,25.2846875 C56.538125,25.353125 56.388125,25.551875 56.080625,25.551875 C56.043125,25.3915625 55.938125,25.353125 55.870625,25.139375 C55.9383641,25.0378908 55.9712683,24.9171325 55.964375,24.7953125 L56.106875,24.65 C56.376875,24.1296875 56.039375,23.4725 56.241875,22.89125 L56.406875,22.7684375 C56.526875,22.6925 56.500625,22.4478125 56.624375,22.3409375 C56.6273602,22.1529804 56.5955763,21.9660907 56.530625,21.7896875 C56.335625,21.7596875 56.305625,21.935 56.095625,21.9771875 C55.985894,21.9878035 55.8777103,22.0107611 55.773125,22.045625 C55.600625,22.1909375 55.570625,22.3896875 55.473125,22.596875 C55.443125,22.71125 55.330625,22.7421875 55.233125,22.9025 C55.233125,23.009375 55.139375,23.09 55.113125,23.2315625 C54.8773366,23.3691749 54.6345042,23.4943462 54.385625,23.6065625 C54.1671914,23.87871 53.9786105,24.1735247 53.823125,24.4859375 C53.853125,24.62375 53.718125,24.62375 53.755625,24.8075 C53.620625,24.936875 53.485625,25.0446875 53.328125,25.22 C53.193125,25.22 53.125625,25.319375 52.923125,25.3578125 C52.8107134,25.3487673 52.6998629,25.3257784 52.593125,25.289375 C52.4828656,25.2835108 52.3748417,25.3219943 52.293125,25.39625 C52.105625,25.49 52.293125,25.6634375 52.225625,25.8396875 C52.293125,26.0534375 52.435625,26.18375 52.563125,26.36 C52.773125,26.4284375 53.065625,26.36 53.298125,26.39 C53.6068632,26.4579638 53.8763519,26.6449216 54.048125,26.9103125 L54.048125,27.4296875 L53.860625,27.5375 L53.965625,27.75125 C54.085625,27.75125 54.145625,27.8271875 54.288125,27.8271875 C54.490625,27.644375 54.745625,27.438125 54.880625,27.1240625 L55.083125,27.085625 C55.364375,26.765 55.818125,26.39 56.343125,26.429375 L56.560625,26.710625 C56.725625,26.710625 56.868125,26.804375 57.085625,26.909375 L57.190625,26.84 C57.355625,26.84 57.460625,27.0275 57.715625,27.0275 C57.809375,26.9890625 57.880625,27.0275 58.015625,26.9890625 C58.150625,26.9890625 58.188125,27.0959375 58.338125,27.1765625 L58.413125,27.40625 C58.1035681,27.8062402 57.7090794,28.1325259 57.258125,28.3615625 L57.220625,28.4684375 C57.126875,28.57625 56.868125,28.506875 56.695625,28.61375 L56.628125,28.7075 C56.560625,28.8528125 56.598125,29.0975 56.463125,29.2428125 L56.343125,29.3196875 C56.2620718,29.4556916 56.1942608,29.5991621 56.140625,29.748125 C55.859375,29.984375 55.548125,30.160625 55.375625,30.6115625 C55.270625,30.7184375 55.113125,30.756875 55.094375,30.970625 C54.989375,31.0015625 54.951875,31.146875 54.854375,31.3071875 C54.854375,31.521875 55.056875,31.4946875 55.124375,31.6671875 C55.274375,31.8125 55.559375,31.735625 55.754375,31.7740625 C55.904375,31.9728125 56.114375,31.8425 56.211875,32.0796875 L56.414375,32.1865625 C56.534375,32.2934375 56.508125,32.5615625 56.534375,32.7378125 L56.774375,33.0275 C56.804375,33.5478125 57.044375,34.0296875 56.984375,34.5875 L57.014375,34.694375 C57.164375,34.881875 57.434375,34.881875 57.606875,35.18375 C57.7424092,35.3875715 57.850821,35.6081768 57.929375,35.84 L58.139375,36.05375 C58.206875,36.23 58.356875,36.4671875 58.356875,36.71 C58.4763761,36.8923699 58.6369087,37.0442337 58.825625,37.1534375 L58.945625,37.405625 C58.825625,37.6428125 58.555625,37.7496875 58.353125,37.9559375 C58.233125,37.994375 58.203125,38.10125 58.030625,38.1434375 L57.813125,38.1434375 L57.693125,38.3421875 L57.775625,38.4190625 C57.985625,38.4875 58.255625,38.380625 58.510625,38.4190625 C58.686065,38.6588021 58.9095728,38.8593205 59.166875,39.0078125 C59.234375,39.4353125 59.376875,39.8515625 59.339375,40.338125 L59.234375,40.65875 C59.069375,40.934375 59.234375,41.324375 59.234375,41.6684375 L59.166875,41.7753125 C59.034431,41.8605256 58.8937165,41.9321393 58.746875,41.9890625 C58.604375,42.1578125 58.574375,42.4025 58.364375,42.5778125 C58.319375,42.9603125 58.116875,43.2434375 57.981875,43.5875 C57.981875,43.80125 57.839375,43.86875 57.809375,44.1453125 C57.809375,44.290625 57.689375,44.36 57.659375,44.57375 C57.6688463,44.7278026 57.6432011,44.8819941 57.584375,45.0246875 C57.516875,45.063125 57.381875,45.063125 57.314375,45.17 C57.314375,45.239375 57.314375,45.438125 57.186875,45.468125 C57.093125,45.75875 57.216875,46.030625 57.216875,46.3475 C57.123125,46.5621875 56.999375,46.7225 56.935625,47.013125 L56.860625,47.09 L56.766875,47.12 L56.699375,47.189375 C56.631875,47.31875 56.699375,47.388125 56.631875,47.5334375 L56.444375,47.67875 C56.271875,47.785625 56.271875,48.1596875 56.106875,48.305 L55.919375,48.4503125 C55.754375,48.5196875 55.619375,48.4503125 55.409375,48.48125 L55.259375,48.68 C55.191875,48.786875 55.259375,48.96125 55.259375,49.1084375 L55.086875,49.2378125 C54.846875,49.383125 54.786875,49.7065625 54.494375,49.941875 C54.400625,49.941875 54.329375,50.0178125 54.194375,50.04875 L54.100625,50.1246875 C54.070625,50.27 54.280625,50.2015625 54.318125,50.3778125 L54.250625,50.44625 L53.913125,50.44625 C53.845625,50.6759375 53.545625,50.6759375 53.418125,50.8896875 C53.418125,51.1953125 53.178125,51.3790625 52.975625,51.524375 L52.863125,51.524375 C52.623125,51.83 52.206875,51.936875 51.790625,51.906875 L51.509375,52.1515625 C51.306875,52.19 51.134375,52.0821875 50.8859375,52.2275 L50.7809375,52.326875 C50.5109375,52.40375 50.2859375,52.7403125 49.9484375,52.8471875 L49.8359375,52.77875 C49.6934375,52.81625 49.6259375,52.9240625 49.4234375,52.96625 L49.3296875,52.92875 C49.2921875,52.8209375 49.3296875,52.74125 49.2921875,52.6071875 L49.1046875,52.5303125 C49.0371875,52.56875 49.0371875,52.7178125 48.9696875,52.8209375 L48.7971875,52.95875 L48.4746875,52.95875 C48.3053126,52.9802145 48.1555946,53.0793333 48.0696875,53.226875 C48.0696875,53.3721875 47.9496875,53.3721875 47.9196875,53.555 C47.6796875,53.75375 47.2971875,53.6628125 46.9821875,53.75375 L46.8884375,53.93 C46.7922118,53.9990431 46.6768694,54.0363983 46.5584375,54.036875 C46.3559375,54.0753125 46.2509375,54.2890625 46.0334375,54.411875 C45.8352125,54.3898055 45.6346496,54.4028167 45.4409375,54.4503125 L45.3471875,54.5571875 C45.2346875,54.595625 45.2046875,54.7025 45.0321875,54.7325 C44.921381,54.7414331 44.8126085,54.7673614 44.7096875,54.809375 L44.5971875,55.008125 L44.7096875,55.0765625 C44.7932646,55.2112074 44.8612041,55.3549498 44.9121875,55.505 C44.9121875,55.70375 44.7396875,55.8490625 44.7396875,56.0675 C44.7096875,56.174375 44.4696875,56.1359375 44.4021875,56.30375 L44.4021875,56.403125 C44.8071875,56.590625 45.2046875,56.403125 45.6621875,56.556875 L45.7971875,56.7321875 C45.8057462,56.8830846 45.7827573,57.034109 45.7296875,57.175625 L45.5121875,57.2525 C45.3771875,57.359375 45.2721875,57.543125 45.1071875,57.734375 C45.0771875,57.9865625 45.2121875,58.360625 45.0396875,58.61375 L44.8221875,58.720625 L44.7284375,58.949375 C44.5545527,59.0856847 44.3474129,59.1730718 44.1284375,59.2025 C44.0984375,59.3478125 43.8884375,59.309375 43.8284375,59.41625 L43.0709375,59.4621875 L43.0521875,59.4415625 Z" id="Shape" fill="#78ACFF"></path>
                                <path d="M24.835625,22.865 L24.835625,22.8453125 L24.8159375,22.8246875 L24.8159375,22.805 L24.8553125,22.50875 L24.875,22.4890625 L24.875,22.0728125 L24.79625,21.7175 L24.79625,21.696875 L24.9940625,21.30125 C25.0728125,21.123125 25.1721875,21.0246875 25.2903125,21.0246875 L25.805,21.0640625 C25.9094129,21.0568857 26.0084206,21.0149724 26.08625,20.945 L26.8578125,19.896875 L26.8578125,19.8771875 L26.8775,19.8575 L27.2928125,19.5209375 L27.3321875,19.4815625 C27.4451368,19.4542674 27.5523989,19.4073006 27.6490625,19.3428125 L27.7475,19.2434375 C27.88625,19.0653125 28.0053125,18.9865625 28.0840625,18.9865625 L28.7571875,19.1253125 L29.2353125,18.89375 C29.099918,18.878344 28.963768,18.8705193 28.8275,18.8703125 C28.625,18.831875 28.625,18.655625 28.4375,18.6828125 C28.265,18.614375 28.15625,18.4953125 28.0625,18.4690625 C28.0325,18.2703125 27.89,18.2703125 27.89,18.1625 L27.89,17.94875 C27.77,17.841875 27.7325,17.7190625 27.6725,17.643125 C27.7025,17.4284375 27.5375,17.361875 27.5675,17.2146875 L27.3575,16.9090625 C27.3275,16.656875 27.3575,16.3128125 27.2375,16.1365625 C27.1775,16.0296875 27.035,16.0296875 26.9375,15.99125 L26.84375,15.99125 C26.61875,15.891875 26.61875,15.57875 26.40875,15.5478125 C26.3648752,15.4004037 26.333514,15.2495563 26.315,15.096875 C25.9625,14.9590625 25.79,14.6375 25.4825,14.5615625 L25.25,14.5615625 C24.9125,14.2634375 24.425,14.225 23.99,14.118125 L23.825,13.9728125 C23.5241833,13.9642585 23.2318225,13.8713527 22.98125,13.7046875 C22.9226183,13.4152468 22.9124803,13.1180761 22.95125,12.8253125 C23.2221875,12.56375 23.27,12.22625 23.3571875,11.9375 C23.3421226,11.8834937 23.3299182,11.8287301 23.320625,11.7734375 C23.1921875,11.3984375 23.31125,10.979375 23.10125,10.6690625 L22.98125,10.593125 C22.8875,10.2715625 22.91375,9.8975 22.8875,9.614375 C22.775,9.545 22.775,9.3846875 22.745,9.30875 C22.55,9.2778125 22.5125,9.0640625 22.355,8.9871875 C22.22,8.94875 22.1525,9.0640625 22.055,9.025625 C21.8977202,8.98223603 21.750107,8.90938383 21.62,8.8109375 C21.5525,8.6121875 21.4475,8.5053125 21.32,8.4753125 C21.2316014,8.32042338 21.1067394,8.18944692 20.95625,8.09375 C20.78375,7.634375 20.98625,7.0765625 20.82125,6.7015625 C20.32625,6.4803125 19.73375,6.7325 19.23875,6.854375 C19.10375,6.9621875 19.10375,7.0765625 19.00625,7.1759375 L18.97625,7.2903125 C18.8766363,7.41330694 18.7350553,7.49511668 18.57875,7.52 C18.44375,7.5584375 18.27875,7.52 18.17375,7.5584375 C18.17375,7.7459375 17.92625,7.69625 17.8925,7.7721875 C17.69,8.0534375 17.7275,8.47625 17.7575,8.7584375 C17.63,8.8428125 17.66375,9.1334375 17.54,9.164375 C17.3434939,9.26333157 17.1262601,9.31410516 16.90625,9.3125 L16.53125,9.2046875 L16.4375,9.2046875 C16.22,9.1671875 16.15625,8.9525 16.0175,8.9234375 C15.665,8.8465625 15.4925,8.579375 15.2225,8.579375 C15.035,8.6553125 14.9975,8.815625 14.8325,8.8540625 C14.69,8.991875 14.765,9.205625 14.5925,9.2440625 C14.4957213,9.42599661 14.4105512,9.61387194 14.3375,9.8065625 C14.2348697,9.87235312 14.1519423,9.96467469 14.0975,10.07375 L14.0375,10.2875 L13.8425,10.4328125 C13.7375,10.7309375 13.775,10.953125 13.7375,11.1978125 L13.64375,11.358125 L12.78125,11.358125 C12.35375,10.9071875 11.72375,11.1978125 11.2278125,11.1209375 C11.0328125,11.159375 11.0328125,11.3965625 10.8603125,11.3965625 C10.7403125,11.5840625 10.8978125,11.755625 10.7103125,11.825 C10.6728125,12.6584375 10.6728125,13.499375 10.6428125,14.271875 L10.5753125,14.3328125 L10.4815625,14.3328125 C10.3465625,14.4396875 10.3465625,14.6 10.2265625,14.6 L10.0165625,14.7875 C10.0840625,15.2384375 9.8140625,15.5909375 9.6790625,15.8965625 L9.4840625,16.0034375 C9.1465625,15.9725 8.8278125,16.14875 8.5540625,16.255625 C7.8865625,16.1796875 7.2940625,15.965 6.6640625,16.1796875 C6.4765625,16.4009375 6.1690625,16.3625 5.9515625,16.3625 C5.8165625,16.431875 5.6703125,16.431875 5.6440625,16.52375 L5.5503125,16.745 C5.2953125,16.821875 5.2353125,16.9596875 5.0253125,17.0665625 C4.8228125,17.035625 4.6728125,17.1040625 4.5003125,17.035625 C4.4328125,16.8978125 4.2978125,16.754375 4.1478125,16.754375 C3.8403125,16.7853125 3.6003125,16.64 3.3153125,16.64 L3.1128125,16.754375 C2.9009375,16.7796875 2.7246875,16.754375 2.5503125,16.769375 L2.50625,16.82 L2.4865625,16.8603125 L2.2353125,16.8659375 C2.0730946,17.0364356 1.88040323,17.1750717 1.6671875,17.2746875 L1.625,17.375 C1.49,17.451875 1.46,17.5625 1.3175,17.5625 C1.20655217,17.8486349 1.19597562,18.1639486 1.2875,18.456875 C1.175,18.633125 1.0625,18.7015625 0.9575,18.8159375 L0.89,19.030625 L0.95,19.2603125 C1.0925,19.32875 1.145,19.4740625 1.205,19.5415625 C1.48625,19.7028125 1.67375,19.58 1.94,19.7028125 C2.045,19.77875 2.045,19.9240625 2.0825,20.0309375 C2.0825,20.16875 2.1125,20.3675 2.1125,20.474375 C2.045,20.7265625 1.94,20.834375 1.8725,21.036875 L1.8725,21.4803125 L1.805,21.54875 C1.55,21.6715625 1.3475,21.7090625 1.205,21.854375 C1.17499948,22.0035062 1.17499948,22.1571188 1.205,22.30625 C1.445,22.4815625 1.55,22.626875 1.7675,22.73375 C1.94,22.8790625 1.9775,23.1471875 2.15,23.223125 C2.315,23.785625 2.15,24.370625 2.315,24.89 L2.3975,24.966875 C2.6,25.0353125 2.6375,25.154375 2.8025,25.180625 C3.095,25.5171875 3.3275,25.9221875 3.6575,26.0984375 L3.8825,26.0984375 C3.97625,26.335625 4.265,26.0675 4.265,26.335625 C4.25340712,26.899339 4.37177793,27.4581518 4.6109375,27.96875 C4.65152031,27.8818825 4.71384421,27.8069647 4.791875,27.75125 C4.92930797,27.6570281 5.03877862,27.527477 5.10875,27.37625 L5.1284375,27.3565625 C5.1875,27.198125 5.3853125,27.1578125 5.721875,27.2571875 L5.7415625,27.2571875 L6.1165625,27.4746875 L7.3634375,27.711875 L8.135,27.6528125 L8.6890625,27.415625 C8.75184094,27.3218022 8.83242717,27.2412159 8.92625,27.1784375 C9.025625,27.1578125 9.164375,27.198125 9.321875,27.3359375 L9.4015625,27.37625 C9.4803125,27.4353125 9.5403125,27.554375 9.6190625,27.771875 L10.0146875,28.068125 L10.3896875,28.068125 L10.805,28.24625 L11.5765625,28.1871875 L12.0125,28.0484375 L13.1375,28.1478125 L13.6315625,28.0090625 L14.2053125,27.771875 C14.3461923,27.6830526 14.4998503,27.616341 14.6609375,27.5740625 L15.749375,27.5740625 L16.145,27.4353125 C16.2666542,27.3460827 16.4101382,27.291345 16.5603125,27.276875 L17.193125,27.276875 L17.4903125,27.494375 L18.340625,27.6725 C18.4596875,27.6725 18.57875,27.771875 18.7765625,27.95375 L19.1328125,28.1909375 L19.1721875,28.2303125 L19.983125,28.25 L20.0028125,28.25 L20.3778125,28.4478125 L20.8728125,28.5471875 L20.8925,28.5471875 L21.3078125,28.60625 L21.426875,28.3690625 L21.24875,27.9734375 L21.1690625,27.5778125 L21.1690625,27.558125 L21.149375,27.558125 L21.209375,27.498125 L21.490625,27.123125 L21.490625,27.1034375 L21.5103125,27.1034375 L21.5103125,27.08375 L21.7915625,26.8859375 L21.7315625,26.766875 L21.6134375,26.37125 C21.6134375,26.3121875 21.5534375,26.2728125 21.4353125,26.193125 L21.138125,25.8771875 L20.763125,25.5603125 L20.7434375,25.5209375 L20.7040625,25.50125 L20.72375,25.4815625 L20.72375,25.4375 L20.7828125,25.0625 L20.7828125,24.78125 L20.6046875,24.3059375 L21.0603125,24.2121875 L21.2778125,23.9946875 L21.831875,23.9946875 L22.3859375,23.915 L22.405625,23.915 L22.780625,23.954375 L23.215625,23.796875 L23.710625,23.736875 L24.0275,23.5990625 L24.0471875,23.5990625 L24.8975,23.440625 L25.03625,23.301875 L24.996875,23.1434375 L24.835625,22.865 Z M4.37675,28.733125 L4.39675,28.7065427 L4.54475,28.533125 C4.48675,28.5938845 4.42875,28.6597073 4.37275,28.7217326 C4.37475,28.7255301 4.37475,28.7293275 4.37675,28.733125 Z M67.825625,5.97875 L67.615625,5.79125 L67.521875,5.79125 L67.323125,5.9375 L67.120625,5.9375 C66.880625,6.14375 66.558125,6.3425 66.393125,6.59375 C66.130625,6.670625 65.965625,6.700625 65.830625,6.899375 C65.860625,7.1140625 65.688125,7.180625 65.688125,7.3278125 C65.433125,7.4046875 65.433125,7.6334375 65.268125,7.77875 C64.878125,7.8865625 64.600625,8.06 64.248125,8.06 C64.113125,7.953125 63.985625,7.77875 63.843125,7.739375 L63.723125,7.7084375 L63.693125,7.4946875 C63.6578197,7.34980824 63.6022735,7.21062723 63.528125,7.08125 C63.4231673,7.03572522 63.3474068,6.94137538 63.325625,6.8290625 C63.1401276,6.71960873 62.9833148,6.56761597 62.868125,6.385625 C62.695625,6.27875 62.478125,6.3171875 62.343125,6.3171875 C62.178125,6.1559375 61.998125,6.08 61.818125,5.9421875 C61.349375,5.90375 60.786875,5.973125 60.355625,5.8278125 L60.190625,5.6403125 C60.153125,5.5175 60.070625,5.3721875 60.003125,5.3721875 C59.950625,5.1415625 59.883125,4.9446875 59.838125,4.7478125 L59.8334375,4.7478125 L59.795,4.7853125 C59.7490778,4.79099671 59.7041572,4.76890463 59.680625,4.7290625 L59.4096875,4.1140625 C59.3746526,4.09787307 59.336703,4.08894373 59.298125,4.0878125 C59.1984854,3.95130711 59.1082759,3.80816217 59.028125,3.659375 C58.9922066,3.44304126 58.8634054,3.25326496 58.675625,3.14 C58.540625,3.033125 58.570625,2.7575 58.473125,2.6890625 L58.368125,2.6121875 C58.218125,2.5053125 58.248125,2.3065625 58.218125,2.16125 C57.948125,1.985 57.880625,1.77125 57.715625,1.6109375 C57.595625,1.5415625 57.595625,1.3203125 57.520625,1.289375 C57.426875,1.1515625 57.183125,1.1825 57.115625,1.0221875 C56.898125,1.075625 56.763125,0.98375 56.590625,1.075625 C56.496875,1.1825 56.410625,1.2584375 56.309375,1.2584375 C56.1240075,1.08900285 55.8979166,0.970466601 55.653125,0.914375 C55.420625,0.876875 55.233125,0.9528125 55.023125,0.8459375 C54.828125,0.9528125 54.573125,0.914375 54.400625,0.914375 C54.198125,0.9528125 54.130625,1.075625 53.973125,1.075625 C53.9226345,1.08329723 53.8749045,1.10361471 53.834375,1.1346875 L53.646875,1.46 L53.646875,1.90625 C53.646875,2 53.8175,2.2296875 54.1596875,2.5521875 C54.36875,2.705 54.501875,2.7809375 54.6153125,2.7996875 L54.7090625,2.7809375 L54.8028125,2.7425 L55.12625,2.42 L55.3728125,2.2671875 L55.3728125,2.2484375 L55.8865625,2.1725 L56.0384375,1.8490625 L56.4940625,1.58375 L56.8934375,1.8115625 L56.8934375,1.8303125 L56.9309375,1.8490625 L57.3115625,2.4959375 L57.4634375,2.9328125 L57.4634375,2.99 L57.3875,3.5215625 L57.539375,3.8825 L57.539375,3.9396875 L57.425,4.3578125 L57.425,4.7384375 C57.5013382,4.94146291 57.5587694,5.15110257 57.5965625,5.3646875 L57.558125,5.688125 L57.558125,5.706875 L57.370625,5.973125 L57.370625,5.991875 L57.183125,6.220625 L57.164375,6.63875 L57.2778125,7.075625 L57.2965625,7.094375 L57.2778125,7.113125 L57.164375,7.77875 L57.070625,7.8725 C56.9852755,7.92862667 56.8747245,7.92862667 56.789375,7.8725 L56.751875,7.8725 L56.5803125,7.685 L56.3928125,7.7421875 L56.14625,8.0084375 L55.88,8.7875 L55.88,8.80625 L55.86125,8.8259375 L55.595,9.05375 L55.5575,9.05375 L55.4046875,9.0725 L55.1009375,9.509375 L55.2528125,9.790625 L55.29125,9.8290625 L55.66625,10.304375 L55.66625,10.475 L56.084375,10.5321875 L56.1603125,10.911875 L56.1603125,10.9315625 L56.2175,11.3871875 L56.331875,11.4809375 L56.7115625,11.3675 L57.0725,11.1584375 L57.1296875,11.12 L57.2628125,11.7659375 L57.4334375,12.0134375 L57.471875,12.0321875 L57.605,12.2984375 L57.88625,12.52625 C57.92375,12.5834375 58.019375,12.5834375 58.1140625,12.5834375 L58.2078125,12.6021875 L58.379375,12.52625 C58.5117677,12.4623615 58.65254,12.4175416 58.7975,12.393125 L58.9109375,12.336875 L59.1771875,12.3171875 C59.2482543,12.3109301 59.3180033,12.3391784 59.3646875,12.393125 L59.7396875,12.1465625 L59.778125,12.1465625 L59.815625,12.1653125 L59.8353125,12.1465625 L59.8728125,12.1840625 C60.0246875,12.355625 60.100625,12.5075 60.100625,12.5834375 L60.2721875,12.8646875 L60.4053125,12.903125 L60.4428125,12.903125 L60.40625,12.875 C60.3862171,12.8141053 60.3862171,12.7483947 60.40625,12.6875 C60.4615901,12.6199281 60.5471913,12.5847013 60.6340625,12.59375 L61.3371875,12.575 L61.3559375,12.5553125 L61.394375,12.5553125 L61.394375,12.59375 L61.431875,12.59375 L61.6409375,12.993125 L61.6221875,13.2021875 L61.6034375,13.2021875 L61.8696875,13.2584375 L61.8884375,13.2584375 C61.8650403,13.2150279 61.8726413,13.1614407 61.9071875,13.12625 L62.0009375,13.1065625 L62.628125,13.544375 C62.6886784,13.606809 62.7286023,13.6863296 62.7425,13.7721875 L62.76125,14.0384375 L62.9703125,14.0759375 L63.1034375,13.848125 C63.0469617,13.7573166 63.0204018,13.6510769 63.0275,13.544375 C63.0345372,13.4716595 63.0774597,13.4072759 63.141875,13.3728125 L63.198125,13.315625 C63.198125,13.278125 63.2178125,13.2584375 63.2553125,13.2396875 L63.426875,13.2584375 C63.520625,13.315625 63.5975,13.5059375 63.6359375,13.829375 L63.6359375,13.866875 L63.6734375,13.885625 C63.6921875,13.9615625 63.8065625,14.01875 63.9771875,14.073125 L63.996875,14.073125 L64.015625,14.091875 L64.6240625,14.7190625 L64.9053125,14.6253125 L64.866875,14.5315625 C64.8089793,14.4617789 64.7759913,14.3746906 64.773125,14.2840625 C64.773125,14.1509375 64.866875,14.0178125 65.054375,13.8846875 L65.3778125,13.6034375 C65.3703125,13.5828125 65.3628125,13.5621875 65.3571875,13.540625 C65.3571875,13.4028125 65.2634375,13.2040625 65.2634375,13.0971875 C65.3571875,12.8825 65.6159375,12.8525 65.7209375,12.7071875 L65.7509375,12.4775 C66.1634375,12.25625 66.5946875,12.29 67.0109375,12.3321875 C67.0784375,12.1446875 67.1159375,12.08 67.2134375,12.0415625 C67.3184375,11.91125 67.3634375,11.6975 67.4084375,11.590625 C67.5434375,10.4440625 67.2884375,9.228125 67.5434375,8.165 L67.6484375,8.07125 C67.7754276,7.78863506 67.7615264,7.46265289 67.6109375,7.191875 C67.6784375,6.985625 67.6109375,6.8403125 67.6109375,6.6415625 C67.6526039,6.51833406 67.7248587,6.40769384 67.8209375,6.32 C67.8540623,6.20887754 67.855685,6.09074038 67.825625,5.97875 L67.825625,5.97875 Z" id="Shape" fill="#FFC42E"></path>
                                <path d="M38.4425,36.40625 L38.425625,36.389375 L38.1790625,36.1925 L38.14625,36.1925 L38.14625,36.175625 L38.015,35.97875 L37.9821875,35.9946875 L37.9653125,36.0284375 C37.9325,36.0771875 37.85,36.0940625 37.7515625,36.0940625 L37.653125,36.1428125 C37.6266376,36.1637043 37.5914849,36.1700318 37.559375,36.1596875 C37.5265625,36.1596875 37.5096875,36.11 37.476875,36.0284375 C37.4595467,35.930555 37.4068255,35.8424637 37.32875,35.7809375 L37.3128125,35.765 L37.3128125,35.75 L37.2959375,35.75 L37.2134375,35.53625 L37.1478125,35.53625 L36.90125,35.70125 L36.8853125,35.7171875 L36.8684375,35.7171875 L36.2928125,35.8325 L36.26,35.8325 L36.2271875,35.8165625 L35.8521875,35.553125 L35.8353125,35.53625 L35.8353125,35.5203125 L35.819375,35.5203125 L35.725625,35.3225 L35.444375,35.61875 C35.2465625,35.849375 35.0984375,35.915 35,35.849375 L34.625,35.6515625 L34.3615625,35.61875 L34.32875,35.635625 L34.0821875,35.4546875 L34.06625,35.4378125 L34.0165625,35.421875 L34.131875,34.9775 L34.131875,34.829375 L33.98375,34.76375 L33.966875,34.76375 L33.621875,34.38875 L33.63875,34.1075 L32.78375,34.025 L32.4546875,33.8440625 C32.3523211,33.7682911 32.2820751,33.656901 32.2578125,33.531875 L32.208125,33.4165625 L32.1425,33.17 L32.0271875,33.186875 L31.7646875,33.400625 L31.4515625,33.775625 L31.518125,34.056875 L31.611875,34.41875 L31.611875,34.4375 L31.6278125,34.4375 L31.611875,34.4534375 L31.611875,34.4703125 C31.5790625,34.56875 31.480625,34.6175 31.330625,34.6175 L31.0015625,34.6175 L30.8046875,34.52375 L30.558125,34.6175 L30.5084375,34.634375 L30.475625,34.6175 L30.4428125,34.848125 L30.4259375,34.8809375 L30.4259375,34.930625 L30.3771875,34.930625 L29.965625,34.7984375 C29.959596,34.9192558 29.9882198,35.0392808 30.048125,35.144375 C30.1023529,35.2339951 30.1083302,35.3447518 30.0640625,35.4396875 L30.0153125,35.571875 C29.965625,35.620625 29.8175,35.6375 29.60375,35.620625 L29.3225,35.620625 L29.3065625,36.0809375 L28.9446875,35.9496875 L28.92875,35.9496875 L28.911875,35.9328125 L28.7309375,35.5878125 L28.33625,35.4565625 L28.2378125,35.2428125 L28.0896875,35.358125 L28.07375,35.358125 L27.8271875,35.406875 L27.760625,35.406875 L27.629375,35.1115625 L27.498125,34.930625 L27.48125,34.91375 C27.3853158,34.7944587 27.3078857,34.6614054 27.2515625,34.5190625 C27.2515625,34.503125 27.21875,34.4703125 27.13625,34.4534375 L27.070625,34.4375 C26.9487404,34.3799822 26.8584959,34.2715515 26.8240625,34.14125 L26.7584375,33.86 L26.7584375,33.629375 L26.643125,33.415625 L26.44625,33.4821875 L26.3965625,33.4821875 L26.0215625,33.366875 L25.626875,33.3171875 L25.495625,33.4653125 L25.4628125,33.7465625 L25.47875,33.7634375 L25.5940625,34.1909375 L25.61,34.5190625 L25.61,34.6128125 L25.413125,34.6128125 L25.495625,35.0075 L25.1825,35.1228125 L25.05125,35.369375 L25.2153125,35.500625 L25.2490625,35.5175 L25.82375,35.9778125 L25.840625,35.99375 L25.8565625,35.99375 L25.8565625,36.03125 L25.9390625,36.441875 L26.2025,36.816875 C26.2855196,36.9394782 26.3848727,37.0501858 26.4978125,37.1459375 L26.5146875,37.1459375 L26.530625,37.161875 L26.530625,37.17875 L26.5146875,37.2115625 L26.5146875,37.5734375 C26.5634375,37.6671875 26.5803125,37.885625 26.5803125,38.1978125 C26.7284375,38.4115625 26.7940625,38.5596875 26.7940625,38.658125 C26.8180823,38.78918 26.8623627,38.9156955 26.9253125,39.033125 L26.9253125,39.0490625 C26.9577254,39.2462791 26.9465252,39.4482029 26.8925,39.640625 C26.84375,39.7559375 26.909375,39.9696875 27.0903125,40.2659375 L27.10625,40.281875 L27.123125,40.3146875 L27.10625,40.3475 L26.84375,40.923125 C26.8823389,41.0174164 26.9045332,41.117608 26.909375,41.219375 L26.84375,41.76125 C26.81,41.9421875 26.81,42.0425 26.8925,42.074375 L26.9909375,42.14 C27.1390625,42.205625 27.18875,42.288125 27.18875,42.3696875 L27.171875,42.6509375 L27.254375,42.68375 L27.2609375,42.6903125 L27.276875,42.6903125 L27.32,42.6471875 C27.3772034,42.5945246 27.4173597,42.5259651 27.4353125,42.4503125 L27.468125,42.400625 L27.4840625,42.3678125 C27.5454928,42.3321773 27.5965523,42.2811178 27.6321875,42.2196875 C27.6513409,42.1158092 27.6458824,42.0088878 27.61625,41.9075 L27.5834375,41.8259375 L27.665,41.8090625 C27.9284375,41.7434375 28.0765625,41.759375 28.1253125,41.8746875 L28.2575,42.20375 L28.2575,42.2365625 L28.323125,42.779375 L28.536875,42.89375 L28.5696875,42.89375 L28.7009375,43.0090625 L28.8321875,42.8609375 L28.9803125,42.7465625 L29.03,42.7465625 C29.1384525,42.777364 29.2208136,42.8658661 29.24375,42.97625 L29.309375,43.40375 L29.3253125,43.469375 L29.7696875,44.4228125 L29.950625,44.60375 L29.9665625,44.620625 L29.9665625,44.6365625 L30.0490625,45.03125 L30.081875,45.40625 L30.09875,45.4390625 C30.213125,45.275 30.3125,45.1925 30.38,45.2253125 C30.445625,45.2421875 30.4615625,45.275 30.4615625,45.340625 L30.4615625,45.8178125 C30.5440625,45.83375 30.6096875,45.8178125 30.6265625,45.768125 L30.790625,45.5384375 L30.9715625,45.3575 C31.0734581,45.2710496 31.2001702,45.219183 31.3334375,45.209375 L31.34375,45.209375 L31.6896875,45.291875 L31.788125,45.2421875 L31.9690625,45.0115625 L31.93625,44.650625 C31.8209375,44.4528125 31.77125,44.28875 31.8040625,44.1734375 L31.85375,43.878125 L31.85375,43.844375 L31.8696875,43.8115625 L32.1828125,43.630625 L32.19875,43.630625 L32.429375,43.4834375 L32.691875,43.1084375 L32.7246875,42.8271875 L32.429375,42.1371875 L33.085625,42.4325 L33.085625,42.1371875 L33.3321875,41.9234375 L33.809375,41.79125 L33.8421875,41.79125 L34.1234375,42.3996875 L34.1234375,42.4325 L34.090625,42.663125 L34.1234375,42.876875 C34.15625,42.970625 34.2171875,43.025 34.2715625,43.025 C34.3534633,43.0121095 34.4255039,42.9637393 34.4684375,42.8928125 L34.4853125,42.86 L34.50125,42.86 L34.8959375,42.72875 L34.90625,42.72875 C35.12,42.72875 35.219375,42.7784375 35.268125,42.876875 L35.3009375,43.3203125 L35.3009375,43.34375 L35.3834375,43.3596875 L35.5475,43.409375 L35.7940625,43.3925 L36.205625,43.278125 L36.453125,43.0625 L36.4690625,42.8815625 L36.3546875,42.7503125 L35.9271875,42.6021875 L35.894375,42.5853125 L35.894375,42.569375 L35.40125,42.07625 L35.45,42.0434375 L35.6965625,41.8296875 L35.7134375,41.8128125 L35.96,41.7190625 L36.00875,41.7190625 L36.3378125,41.7846875 L36.3546875,41.7846875 L36.370625,41.800625 L36.370625,41.669375 L36.21875,41.4190625 L35.9890625,41.30375 L35.676875,40.8434375 L35.66,40.8275 L35.66,40.8125 L35.511875,40.270625 L35.511875,39.8590625 L35.7753125,39.6125 L36.17,39.6125 L37.090625,39.695 L37.518125,39.0865625 L37.518125,39.05375 L37.5509375,39.05375 L37.8959375,38.8728125 L38.076875,38.5109375 L38.0928125,38.495 L38.504375,38.15 L38.70125,37.788125 L38.70125,37.77125 L38.718125,37.77125 L38.718125,37.7553125 L38.8821875,37.5903125 L39.0790625,37.2621875 L39.145625,36.7521875 L39.145625,36.7025 L39.1615625,36.6865625 L39.425,36.505625 L39.490625,36.44 L39.0959375,36.374375 L38.4425,36.40625 Z" id="Path" fill="#06D1A2" fill-rule="nonzero"></path>
                            </g>
                            <rect id="Rectangle-Copy-20" fill="#B6BCC6" x="12" y="19" width="16" height="1"></rect>
                            <rect id="Rectangle-Copy-37" fill="#B6BCC6" x="12" y="21" width="16" height="1"></rect>
                            <rect id="Rectangle-Copy-35" fill="#B6BCC6" x="12" y="28" width="16" height="1"></rect>
                            <rect id="Rectangle-Copy-38" fill="#B6BCC6" x="12" y="30" width="16" height="1"></rect>
                            <g id="Group-40" transform="translate(12.000000, 37.000000)" fill="#B6BCC6">
                                <rect id="Rectangle-Copy-36" x="0" y="0" width="16" height="1"></rect>
                                <rect id="Rectangle-Copy-39" x="0" y="2" width="16" height="1"></rect>
                            </g>
                            <rect id="Rectangle-Copy-31" fill="#06D1A2" opacity="0.800000012" x="0" y="28" width="8" height="3"></rect>
                            <rect id="Rectangle-Copy-32" fill="#78ACFF" x="0" y="37" width="8" height="3"></rect>
                        </g>
                    </g>
                </g>
            </g>
        </g>
    </g>
</svg>